<?xml version="1.0" encoding="iso-8859-1"?>
<!-- Generator: Adobe Illustrator 18.1.1, SVG Export Plug-In . SVG Version: 6.00 Build 0)  -->
<svg class="culture-item__image" version="1.1" id="Capa_1" xmlns="http://www.w3.org/2000/svg" xmlns:xlink="http://www.w3.org/1999/xlink" x="0px" y="0px"
	 viewBox="0 0 13.26 13.26" style="enable-background:new 0 0 13.26 13.26;" xml:space="preserve">
<g>
	<g>
		<path style="fill:#030104;" d="M13.162,5.345L8.076,0.259c-0.1-0.1-0.252-0.125-0.38-0.064S7.493,0.392,7.508,0.533
			c0.004,0.031,0.271,3.15-4.76,8.21c-0.84-0.392-1.74-0.347-2.287,0.201c-0.764,0.764-0.556,2.213,0.462,3.231
			s2.468,1.227,3.231,0.463c0.566-0.566,0.598-1.51,0.16-2.375c5.137-5.089,8.482-4.369,8.53-4.358
			c0.116,0.028,0.236-0.007,0.317-0.088c0.021-0.021,0.039-0.044,0.055-0.07C13.291,5.615,13.268,5.451,13.162,5.345z M3.682,12.166
			c-0.494,0.495-1.542,0.283-2.287-0.462S0.438,9.911,0.932,9.417C1.427,8.922,2.474,9.135,3.219,9.88
			C3.964,10.625,4.176,11.672,3.682,12.166z M3.989,9.644l-0.6-0.599C7.088,5.269,7.948,2.538,8.132,1.26l3.934,3.934
			C10.669,5.255,7.799,5.924,3.989,9.644z"/>
		<path style="fill:#030104;" d="M1.684,9.681C1.546,9.692,1.442,9.812,1.452,9.95c0.01,0.138,0.13,0.241,0.268,0.231
			c0.005,0,0.523-0.027,0.87,0.317c0.258,0.258,0.371,0.666,0.333,1.215c-0.009,0.139,0.095,0.258,0.233,0.268
			c0.075,0.005,0.145-0.023,0.194-0.073c0.042-0.041,0.068-0.097,0.072-0.159c0.049-0.7-0.113-1.24-0.478-1.604
			C2.432,9.634,1.715,9.68,1.684,9.681z"/>
		<path style="fill:#030104;" d="M6.284,6.75c-0.06,0.07-0.053,0.175,0.018,0.235c0.069,0.061,0.174,0.053,0.235-0.018
			c0.023-0.026,2.389-2.735,3.999-2.146c0.063,0.022,0.131,0.006,0.176-0.039c0.017-0.017,0.03-0.037,0.039-0.061
			c0.031-0.087-0.013-0.183-0.1-0.215C8.825,3.84,6.387,6.631,6.284,6.75z"/>
	</g>
</g>
<g>
</g>
<g>
</g>
<g>
</g>
<g>
</g>
<g>
</g>
<g>
</g>
<g>
</g>
<g>
</g>
<g>
</g>
<g>
</g>
<g>
</g>
<g>
</g>
<g>
</g>
<g>
</g>
<g>
</g>
</svg>
