<svg id="Layer_1" enable-background="new 0 0 512.059 512.059" height="512" viewBox="0 0 512.059 512.059" width="512" xmlns="http://www.w3.org/2000/svg"><g><g><g><g><path d="m241.389 49.445-21.213 21.213 18.09 18.089-8.67 56.918c-8.85 58.107-36.16 111.452-77.721 153.015-14.265 14.264-34.2 22.534-55.112 22.253-25.556-.347-49.676 9.29-67.953 27.109-37.686 36.743-38.507 97.318-1.83 135.032 17.982 18.491 42.079 28.773 67.852 28.953.229.001.458.002.687.002 25.52 0 49.486-9.923 67.55-27.987 18.701-18.701 28.627-43.565 27.952-70.012-.501-19.616 7.913-39.566 22.276-53.93 41.559-41.547 94.919-68.873 153.014-77.721l56.918-8.67 18.09 18.09 21.213-21.213zm-80.359 365.351c.463 18.146-6.346 35.205-19.175 48.033-12.504 12.503-29.131 19.334-46.815 19.199-17.681-.124-34.214-7.18-46.554-19.869-25.158-25.871-24.59-67.427 1.266-92.637 12.323-12.014 29.42-18.593 46.614-18.593 23.902.345 46.423-6.938 64.814-20.657l20.57 20.47c-13.866 18.536-21.303 41.194-20.72 64.054zm200.763-162.075c-31.862 4.853-62.601 14.69-91.361 29.237-24.289 12.286-46.709 27.699-66.821 45.922l-19.516-19.516c18.223-20.112 33.637-42.532 45.922-66.821 14.547-28.76 24.384-59.499 29.237-91.361l5.346-35.101 132.293 132.293z"/></g></g></g><path d="m375.032 73.03h98.052v29.999h-98.052z" transform="matrix(.707 -.707 .707 .707 61.957 325.637)"/><path d="m307.725.029h30v64h-30z"/><path d="m448.059 174.363h64v30h-64z"/></g></svg>